<svg width="222" height="222" viewBox="0 0 222 222" fill="none" xmlns="http://www.w3.org/2000/svg">
<g clip-path="url(#clip0)">
<circle cx="111.5" cy="111.5" r="72.5" fill="#46C7BF"/>
<g clip-path="url(#clip1)">
<path d="M112.094 32.4962C111.094 33.309 106.798 37.4652 102.577 41.6953C98.355 45.9253 93.3743 50.8019 91.5042 52.5383C89.6341 54.2562 87.653 56.2327 87.116 56.9531C84.9497 59.7793 82.7093 64.2495 81.0984 68.9968C80.6726 70.216 80.1727 71.0841 78.5618 73.3377C71.3037 83.4973 69.341 86.4713 67.1192 90.7568C66.4341 92.0683 65.4157 93.8231 64.8417 94.6174C62.3236 98.2194 61.7867 100.27 59.8981 113.477C58.8056 121.088 58.6575 121.771 56.6578 128.347C54.436 135.588 53.7509 138.802 53.2139 144.418C52.8621 148.075 52.9547 154.393 53.4176 158.918C53.936 163.869 53.5657 168.45 52.3807 172.033C51.3253 175.174 49.0849 178.85 46.6594 181.436C45.9188 182.211 45.5485 182.747 45.6966 182.784C46.8631 183.19 49.2331 185.37 53.6953 190.154C55.9172 192.537 59.4352 194.735 62.8606 195.918C67.8413 197.635 77.025 199.483 81.7465 199.723C82.7648 199.778 84.5609 199.871 85.7273 199.926C89.9674 200.148 90.5599 200.314 97.1144 203.159C103.262 205.819 106.928 206.465 114.667 206.225C127.961 205.819 128.369 205.782 135.164 204.267C140.719 203.029 143.7 202.623 147.292 202.604C149.773 202.604 153.18 202.235 154.994 201.773C158.642 200.85 160.401 199.852 168.566 194.144C171.825 191.854 179.564 186.756 186.36 182.415L190.803 179.57L190.859 176.541C190.97 171.682 190.155 165.18 188.859 160.488C187.897 156.997 187.341 154.725 187.008 153.081C186.452 150.31 186.36 149.645 185.527 143.217C185.008 139.153 184.841 138.063 184.416 135.921C184.193 134.849 183.953 133.316 183.842 132.503C183.527 129.825 183.119 123.138 183.119 120.312C183.119 118.779 183.064 116.876 183.008 116.045L182.879 114.549L181.064 112.48C178.417 109.45 178.213 109.136 175.195 102.856C173.547 99.4755 171.732 96.6309 168.177 91.939L165.826 88.8172H164.511C162.808 88.8357 161.901 89.2421 160.456 90.7198C159.049 92.1422 157.235 93.1212 154.92 93.6938C151.902 94.4512 152.124 94.4696 151.865 93.4721C150.995 90.1841 147.329 82.1858 144.607 77.6417C142.737 74.5384 141.774 72.5619 140.941 70.1236C140.015 67.4636 139.626 65.7088 138.589 59.5392C136.979 49.9522 136.071 47.3661 133.257 44.3737C131.924 42.9514 131.35 42.5265 128.091 40.6608C125.017 38.906 124.721 38.7028 122.573 36.6155C120.555 34.6759 118.519 33.2351 115.889 31.9236C114.889 31.4064 114.038 31 114.001 31C113.964 31 113.112 31.665 112.094 32.4962Z" fill="black"/>
</g>
</g>
<defs>
<clipPath id="clip0">
<rect width="222" height="222" fill="white"/>
</clipPath>
<clipPath id="clip1">
<rect width="237" height="191" fill="white" transform="translate(0 31)"/>
</clipPath>
</defs>
</svg>
